<svg width="45" height="42" viewBox="0 0 45 42" fill="none" xmlns="http://www.w3.org/2000/svg">
<g clip-path="url(#clip0_309_11)">
<path fill-rule="evenodd" clip-rule="evenodd" d="M0 21.1173C0 31.5578 8.12438 40.2395 18.75 42V26.8328H13.125V21H18.75V16.3328C18.75 11.0828 22.3744 8.16725 27.5006 8.16725C29.1244 8.16725 30.8756 8.4 32.4994 8.63275V14H29.625C26.8744 14 26.25 15.2827 26.25 16.9172V21H32.25L31.2506 26.8328H26.25V42C36.8756 40.2395 45 31.5595 45 21.1173C45 9.5025 34.875 0 22.5 0C10.125 0 0 9.5025 0 21.1173Z" fill="#68BFFF"/>
</g>
<defs>
<clipPath id="clip0_309_11">
<rect width="45" height="42" fill="white"/>
</clipPath>
</defs>
</svg>
