<svg width="45" height="42" viewBox="0 0 45 42" fill="none" xmlns="http://www.w3.org/2000/svg">
<ellipse cx="22.5" cy="21" rx="22.5" ry="21" fill="#FCFCFC"/>
<g clip-path="url(#clip0_309_12)">
<path d="M15.1314 32.7269V20.309L12.0131 16.7857L9.2168 14.8306V30.5355C9.2168 31.748 10.0123 32.7269 10.9912 32.7269H15.1314Z" fill="#4285F4"/>
<path d="M29.3262 32.7268H33.4663C34.4482 32.7268 35.2408 31.7443 35.2408 30.5354V14.8306L32.0735 17.07L29.3262 20.3089V32.7268Z" fill="#34A853"/>
<path d="M15.1313 20.3089L14.707 15.4569L15.1313 10.813L22.2288 17.3872L29.3263 10.813L29.801 15.2062L29.3263 20.3089L22.2288 26.8831L15.1313 20.3089Z" fill="#EA4335"/>
<path d="M29.3262 10.8128V20.3087L35.2408 14.8303V11.9084C35.2408 9.19849 32.7359 7.65362 30.9824 9.27884L29.3262 10.8128Z" fill="#FBBC04"/>
<path d="M9.2168 14.8304L11.937 17.3501L15.1314 20.3088V10.8128L13.4752 9.2789C11.7186 7.65356 9.2168 9.19855 9.2168 11.9084V14.8303V14.8304Z" fill="#C5221F"/>
</g>
<defs>
<clipPath id="clip0_309_12">
<rect width="26.0241" height="24.2308" fill="white" transform="translate(9.2168 8.61523)"/>
</clipPath>
</defs>
</svg>
