<svg width="384" height="366" viewBox="0 0 384 366" fill="none" xmlns="http://www.w3.org/2000/svg">
<rect width="383.714" height="365.905" rx="8" fill="url(#paint0_linear_215_64)"/>
<path d="M110.998 282.555C108.417 281.144 107.605 277.822 109.244 275.38L227.572 99.1034C228.953 97.0465 231.632 96.3108 233.869 97.3739L331.896 143.949C334.659 145.262 335.606 148.727 333.894 151.263L211.624 332.387C210.18 334.525 207.346 335.214 205.082 333.977L110.998 282.555Z" fill="url(#paint1_linear_215_64)"/>
<path d="M121.566 278.933C119.004 277.518 118.2 274.214 119.825 271.78L228.631 108.761C230 106.71 232.659 105.963 234.895 107.002L322.05 147.463C324.845 148.761 325.812 152.254 324.083 154.805L210.22 322.709C208.77 324.849 205.927 325.53 203.665 324.28L121.566 278.933Z" fill="white"/>
<path d="M189.935 191.853C187.366 190.438 186.561 187.128 188.192 184.691L222.844 132.933C224.213 130.888 226.866 130.143 229.099 131.177L253.68 142.553C256.482 143.85 257.451 147.351 255.714 149.903L219.59 203.01C218.139 205.143 215.304 205.822 213.044 204.578L189.935 191.853Z" fill="#85FA29"/>
<path d="M178.897 294.637C176.328 293.223 175.523 289.912 177.154 287.476L211.806 235.717C213.175 233.672 215.828 232.928 218.061 233.961L242.642 245.338C245.444 246.635 246.413 250.135 244.676 252.688L208.552 305.794C207.101 307.927 204.265 308.606 202.006 307.362L178.897 294.637Z" fill="#FF9191"/>
<path d="M230.921 106.436C231.795 106.029 232.832 106.056 233.816 106.513L320.75 146.861C323.936 148.339 325.351 152.831 323.474 155.505L322.882 156.348C321.761 157.945 319.756 158.383 317.867 157.445L231.878 114.751C228.505 113.076 227.903 107.841 230.921 106.436Z" fill="#F6F5F5"/>
<rect width="5.22996" height="2.80728" rx="1.40364" transform="matrix(0.3392 -0.940714 0.807186 0.590298 284.503 137.93)" fill="#5C5A5A"/>
<rect width="5.22996" height="2.80728" rx="1.40364" transform="matrix(0.3392 -0.940714 0.807186 0.590298 293.843 142.767)" fill="#4F4E4E"/>
<rect width="5.22996" height="2.80728" rx="1.40364" transform="matrix(0.3392 -0.940714 0.807186 0.590298 303.183 147.604)" fill="#803E3E"/>
<rect width="5.22996" height="2.80728" rx="1.40364" transform="matrix(0.3392 -0.940714 0.807186 0.590298 312.523 152.441)" fill="#FF9595"/>
<ellipse cx="233.981" cy="111.244" rx="2.12275" ry="2.41846" fill="#2AE5FF"/>
<path d="M188.979 188.03C191.477 213.648 195.772 226.725 205.537 244.863" stroke="#73FF50"/>
<path d="M227.104 191.601C229.22 215.651 233.884 231.09 243.321 247.887" stroke="#FF9191"/>
<path d="M189.404 190.448L216.575 205.563L219.547 203.145L222.518 198.308L226.764 191.657L230.16 214.633L233.557 226.725L236.529 234.585L241.623 246.154L221.669 235.794L216.575 233.376L213.603 234.585L209.357 239.422L205.536 244.863L200.017 234.585L195.347 221.284L191.102 205.563L189.404 190.448Z" fill="url(#paint2_linear_215_64)"/>
<path d="M190.263 239.777C191.556 240.03 191.954 241.784 191.007 243.065L164.482 278.974C163.46 280.358 161.663 280.153 161.314 278.613L151.583 235.61C151.234 234.069 152.609 232.409 154.006 232.682L190.263 239.777Z" fill="#2A6FA1"/>
<path d="M241.719 213.193C240.363 213.257 239.716 211.419 240.562 209.91L263.645 168.766C264.479 167.279 266.144 167.228 266.653 168.673L280.529 208.069C281.038 209.514 280.013 211.383 278.678 211.446L241.719 213.193Z" fill="#7F89E1"/>
<rect width="118.738" height="4.64403" rx="1" transform="matrix(0.563359 -0.780019 0.631103 0.844879 233.411 337.886)" fill="#EDEDED"/>
<path d="M305.395 243.133L303.4 249.329L300.367 253.087L297.533 249.151L299.989 245.769L305.395 243.133Z" fill="#EBEAEA"/>
<path d="M100.759 101.271C98.1979 99.8563 97.3938 96.5535 99.0183 94.1193L146.771 22.564C148.139 20.513 150.799 19.766 153.035 20.8044L188.668 37.3496C191.463 38.6473 192.43 42.14 190.701 44.6905L140.844 118.223C139.393 120.362 136.55 121.043 134.287 119.793L100.759 101.271Z" fill="#73FF50" fill-opacity="0.75"/>
<path d="M88.8666 219.504C86.2625 218.094 85.4479 214.742 87.1145 212.294L135.321 141.482C136.691 139.47 139.31 138.737 141.526 139.745L177.558 156.146C180.393 157.437 181.371 160.978 179.598 163.541L129.264 236.312C127.813 238.411 125.015 239.08 122.771 237.865L88.8666 219.504Z" fill="#FF9595" fill-opacity="0.75"/>
<defs>
<linearGradient id="paint0_linear_215_64" x1="28.5254" y1="3.06298e-08" x2="341.525" y2="354.5" gradientUnits="userSpaceOnUse">
<stop offset="0.126054" stop-color="#078078"/>
<stop offset="1" stop-color="#0329F2"/>
</linearGradient>
<linearGradient id="paint1_linear_215_64" x1="165.204" y1="171.1" x2="284.251" y2="228.37" gradientUnits="userSpaceOnUse">
<stop offset="0.271703" stop-color="#565656"/>
<stop offset="1" stop-color="#6D6F70"/>
</linearGradient>
<linearGradient id="paint2_linear_215_64" x1="199.593" y1="228.539" x2="238.832" y2="220.799" gradientUnits="userSpaceOnUse">
<stop offset="0.0460379" stop-color="#73FF50"/>
<stop offset="0.676748" stop-color="#FF9595"/>
</linearGradient>
</defs>
</svg>
