<?xml version="1.0" encoding="UTF-8" standalone="no"?>
<!-- Created with Inkscape (http://www.inkscape.org/) -->

<svg
   width="729.75256"
   height="155.19014"
   viewBox="20.1 0 510.83409 108.63465"
   version="1.1"
   id="svg4557"
   inkscape:version="1.1.2 (0a00cf5339, 2022-02-04, custom)"
   sodipodi:docname="mkwhite1.svg"
   xmlns:inkscape="http://www.inkscape.org/namespaces/inkscape"
   xmlns:sodipodi="http://sodipodi.sourceforge.net/DTD/sodipodi-0.dtd"
   xmlns="http://www.w3.org/2000/svg"
   xmlns:svg="http://www.w3.org/2000/svg">
  <sodipodi:namedview
     id="namedview4559"
     pagecolor="#ffffff"
     bordercolor="#eeeeee"
     borderopacity="1"
     inkscape:pageshadow="0"
     inkscape:pageopacity="0"
     inkscape:pagecheckerboard="0"
     inkscape:document-units="px"
     showgrid="false"
     units="px"
     showborder="false"
     inkscape:snap-nodes="false"
     inkscape:zoom="1.4142136"
     inkscape:cx="219.2031"
     inkscape:cy="-16.970562"
     inkscape:window-width="1920"
     inkscape:window-height="986"
     inkscape:window-x="-11"
     inkscape:window-y="-11"
     inkscape:window-maximized="1"
     inkscape:current-layer="layer1"
     scale-x="0.70001"
     fit-margin-top="0"
     fit-margin-left="0"
     fit-margin-right="0"
     fit-margin-bottom="0">
    <inkscape:grid
       type="xygrid"
       id="grid4697"
       originx="46.233089"
       originy="-110.0303" />
  </sodipodi:namedview>
  <defs
     id="defs4554" />
  <g
     inkscape:groupmode="layer"
     id="layer2"
     inkscape:label="Layer 2"
     style="display:inline">
    <rect
       style="fill:#353cdb;fill-opacity:1;stroke:#ffffff;stroke-width:0"
       id="rect991"
       width="295.50571"
       height="86.501732"
       x="52.059513"
       y="8.4496307"
       rx="43.750874"
       ry="41.275963"
       inkscape:export-filename="C:\Users\Hp\Desktop\mkblack.png"
       inkscape:export-xdpi="96"
       inkscape:export-ydpi="96" />
  </g>
  <g
     inkscape:label="Layer 1"
     inkscape:groupmode="layer"
     id="layer1"
     transform="translate(46.23309,-110.0303)"
     style="display:inline">
    <text
       xml:space="preserve"
       style="font-style:normal;font-variant:normal;font-weight:normal;font-stretch:normal;font-size:10.5833px;line-height:1.25;font-family:Algerian;-inkscape-font-specification:Algerian;fill:#000000;fill-opacity:1;stroke:none;stroke-width:0;stroke-miterlimit:4;stroke-dasharray:none"
       x="42.333332"
       y="134.9375"
       id="text6439"><tspan
         sodipodi:role="line"
         id="tspan6437"
         style="font-style:normal;font-variant:normal;font-weight:normal;font-stretch:normal;font-family:Algerian;-inkscape-font-specification:Algerian;stroke-width:0;stroke-miterlimit:4;stroke-dasharray:none"
         x="42.333332"
         y="134.9375" /></text>
    <text
       xml:space="preserve"
       style="font-style:normal;font-weight:normal;font-size:10.5833px;line-height:1.25;font-family:sans-serif;fill:#000000;fill-opacity:1;stroke:none;stroke-width:0.264583"
       x="126.73541"
       y="175.15416"
       id="text14503"><tspan
         sodipodi:role="line"
         id="tspan14501"
         style="stroke-width:0.264583"
         x="126.73541"
         y="175.15416" /></text>
    <text
       xml:space="preserve"
       style="font-style:normal;font-weight:normal;font-size:10.5833px;line-height:1.25;font-family:sans-serif;fill:#000000;fill-opacity:1;stroke:none;stroke-width:0.264583"
       x="-32.642967"
       y="152.13542"
       id="text18053"><tspan
         sodipodi:role="line"
         id="tspan18051"
         style="stroke-width:0.264583"
         x="-32.642967"
         y="152.13542" /></text>
    <path
       id="text13179"
       style="font-style:normal;font-weight:normal;font-size:31.6764px;line-height:1.25;font-family:sans-serif;fill:#ffffff;fill-opacity:1;stroke:#ffffff;stroke-width:1.32285;stroke-miterlimit:4;stroke-dasharray:none;stroke-opacity:1"
       d="M 134.04505,0.65912493 126.0623,37.020185 h 2.7133 l 4.36375,-20.25793 c 0.94672,-0.95541 1.89037,-1.74066 2.83121,-2.356 0.94082,-0.61535 1.7815,-0.92296 2.52242,-0.92296 0.72168,0 1.27206,0.17005 1.65107,0.5101 0.38251,0.32387 0.62075,0.82574 0.71481,1.50584 0.0983,0.61535 0.0727,1.47384 -0.078,2.57499 -0.1471,1.08495 -0.35518,2.25044 -0.62376,3.49731 l -3.3277,15.44865 h 2.71394 l 3.79302,-17.61015 c 0.71505,-3.31962 0.80587,-5.86201 0.27195,-7.62707 -0.53393,-1.76508 -1.67212,-2.6477801 -3.41379,-2.6477801 -0.95262,0 -1.95271,0.33182 -3.00024,0.9957401 -1.04751,0.66393 -2.12212,1.58738 -3.22353,2.7695 l 2.57632,-12.45378007 z m 36.5024,-1.43424 -8.14117,37.79530007 h 2.71331 l 8.14118,-37.79530007 z M 54.943651,0.85244493 47.153032,37.020185 h 2.670273 L 56.536084,5.8562249 57.900847,27.060945 h 1.702839 L 70.146922,5.8562249 63.43413,37.020185 h 2.858014 L 74.082776,0.85244493 H 70.113233 L 60.23367,20.988655 58.840844,0.85244493 Z m 144.409179,0 -7.79064,36.16774007 h 2.85802 l 2.64221,-12.2663 2.9628,-3.83802 5.0324,16.10432 h 3.70944 l -6.15702,-17.79964 c 6.61123,-8.34942 10.38641,-14.5566001 12.14128,-15.4586901 l -4.33818,1.28122 c -4.46233,5.6289901 -7.16448,9.3077001 -12.26789,14.6825601 l 4.06559,-18.87319007 z m 15.39849,2.90940997 0.4335,-0.128 c -0.1261,-0.007 -0.27486,0.0465 -0.4335,0.128 z m 7.03776,-1.96198 -2.14888,0.71882 -7.88538,34.5014901 h 2.71332 l 4.36374,-20.25793 c 0.94673,-0.95541 1.89036,-1.74066 2.8312,-2.356 0.94082,-0.61535 1.78214,-0.92296 2.52306,-0.92296 0.72168,0 1.27206,0.17005 1.65107,0.5101 0.38248,0.32387 0.62075,0.82574 0.71481,1.50584 0.0983,0.61535 0.072,1.47384 -0.0786,2.57499 -0.1471,1.08495 -0.35517,2.25044 -0.62376,3.49731 l -3.32708,15.44865 h 2.71332 l 3.79301,-17.61015 c 0.71506,-3.31962 0.80589,-5.86201 0.27197,-7.62707 -0.53394,-1.76508 -1.67151,-2.6477801 -3.41316,-2.6477801 -0.95263,0 -1.95272,0.33182 -3.00024,0.9957401 -1.04752,0.66393 -2.12214,1.58738 -3.22354,2.7695 z m -118.05389,7.33531 c -0.95262,0 -1.9527,0.33182 -3.00024,0.9957401 -1.047509,0.66393 -2.122129,1.58738 -3.223539,2.7695 l 0.64871,-3.0123101 h -2.71331 L 89.602273,37.020185 H 92.3162 l 4.363141,-20.25793 c 0.94673,-0.95541 1.89099,-1.74066 2.83182,-2.356 0.940829,-0.61535 1.781509,-0.92296 2.522449,-0.92296 0.72167,0 1.27205,0.17005 1.65106,0.5101 0.38249,0.32387 0.62075,0.82574 0.71481,1.50584 0.0983,0.61535 0.072,1.47384 -0.0786,2.57499 -0.14711,1.08495 -0.35456,2.25044 -0.62314,3.49731 l -3.32769,15.44865 h 2.7133 l 3.79365,-17.61015 c 0.71505,-3.31962 0.80526,-5.86201 0.27131,-7.62707 -0.53391,-1.76508 -1.67147,-2.6477801 -3.41314,-2.6477801 z m 53.73662,0 c -2.34789,0 -4.52446,1.3036701 -6.52941,3.9108101 -1.99533,2.6071 -3.47101,6.12899 -4.42674,10.56596 -0.96621,4.48555 -0.96195,7.95074 0.0124,10.39594 0.9779,2.42899 2.80459,3.64349 5.47963,3.64349 1.04885,0 2.09627,-0.21845 3.14307,-0.65566 1.04682,-0.43722 2.09753,-0.97983 3.15119,-1.62756 l 1.07222,-4.97932 h -0.14408 c -0.62499,0.71251 -1.57576,1.44109 -2.85241,2.18598 -1.26355,0.7287 -2.44406,1.09299 -3.54102,1.09299 -0.82754,0 -1.54595,-0.19424 -2.15505,-0.58288 -0.59949,-0.38864 -1.06552,-0.97139 -1.39846,-1.74866 -0.3487,-0.79347 -0.53939,-1.80545 -0.5726,-3.03615 -0.0298,-1.24688 0.13474,-2.70466 0.49402,-4.37258 h 11.8793 l 0.5333,-2.4771 c 0.8476,-3.93497 0.91026,-6.97156 0.18713,-9.10907 -0.71352,-2.13751 -2.15789,-3.2061901 -4.33257,-3.2061901 z m 104.8753,0 c -0.95262,0 -1.9527,0.33182 -3.00022,0.9957401 -1.04753,0.66393 -2.12214,1.58738 -3.22354,2.7695 l 0.6487,-3.0123101 h -2.71331 l -5.84453,27.1320701 h 2.71393 l 4.36314,-20.25793 c 0.94671,-0.95541 1.89097,-1.74066 2.83182,-2.356 0.94083,-0.61535 1.7815,-0.92296 2.52243,-0.92296 0.72168,0 1.27207,0.17005 1.65106,0.5101 0.38251,0.32387 0.62076,0.82574 0.71482,1.50584 0.0984,0.61535 0.0719,1.47384 -0.0786,2.57499 -0.14709,1.08495 -0.35455,2.25044 -0.62312,3.49731 l -3.3277,15.44865 h 2.71329 l 3.79366,-17.61015 c 0.71506,-3.31962 0.80526,-5.86201 0.27132,-7.62707 -0.53394,-1.76508 -1.67148,-2.6477801 -3.41316,-2.6477801 z m -178.998545,0.0973 c -0.971863,0 -1.989725,0.14584 -3.05325,0.43732 -1.063513,0.29148 -1.885995,0.5583301 -2.467553,0.8012401 l -0.999238,4.63986 h 0.144082 c 1.062439,-0.59915 2.064551,-1.05261 3.006467,-1.36028 0.945405,-0.32386 1.77421,-0.48626 2.486273,-0.48626 0.586966,0 1.135742,0.0649 1.646689,0.19451 0.510958,0.12954 0.919127,0.38046 1.223803,0.75292 0.32043,0.38864 0.513011,0.92297 0.578215,1.6031 0.07484,0.6801 5.55e-4,1.5386 -0.222685,2.57497 l -0.151566,0.70398 c -1.605985,0.12955 -3.124669,0.32443 -4.556493,0.58352 -1.431814,0.25908 -2.717564,0.75267 -3.856009,1.48136 -1.128838,0.7287 -2.095642,1.73306 -2.900442,3.0123 -0.791677,1.26309 -1.408927,2.92277 -1.851907,4.97932 -0.540651,2.50995 -0.480036,4.57469 0.181513,6.19401 0.661548,1.61934 1.718772,2.42879 3.171757,2.42879 0.789046,0 1.50479,-0.12929 2.147569,-0.38838 0.63929,-0.24289 1.225255,-0.55113 1.757736,-0.92359 0.447674,-0.29146 0.925826,-0.67997 1.434612,-1.16575 0.521895,-0.502 0.933299,-0.89049 1.233161,-1.16578 l -0.623128,2.89058 h 2.699591 l 3.965786,-18.41202 c 0.376713,-1.74886 0.533216,-3.2143 0.470307,-4.39641 -0.06289,-1.18212 -0.317075,-2.14569 -0.762843,-2.89059 -0.451899,-0.76108 -1.067664,-1.29542 -1.848165,-1.6030901 -0.767393,-0.32386 -1.71883,-0.48563 -2.854282,-0.48563 z m 36.459395,0 c -0.97188,0 -1.98973,0.14584 -3.05326,0.43732 -1.06352,0.29148 -1.88599,0.5583301 -2.46755,0.8012401 l -0.99925,4.63986 h 0.14409 c 1.06245,-0.59915 2.06456,-1.05261 3.00647,-1.36028 0.94541,-0.32386 1.7742,-0.48626 2.48626,-0.48626 0.58698,0 1.13577,0.0649 1.64671,0.19451 0.51096,0.12954 0.91913,0.38046 1.22379,0.75292 0.32044,0.38864 0.51301,0.92297 0.57821,1.6031 0.0748,0.6801 6.4e-4,1.5386 -0.22267,2.57497 l -0.15158,0.70398 c -1.60597,0.12955 -3.12465,0.32443 -4.55648,0.58352 -1.43182,0.25908 -2.71694,0.75267 -3.85539,1.48136 -1.12883,0.7287 -2.09566,1.73306 -2.90043,3.0123 -0.79169,1.26309 -1.40893,2.92277 -1.85193,4.97932 -0.54063,2.50995 -0.48066,4.57469 0.1809,6.19401 0.66155,1.61934 1.71878,2.42879 3.17176,2.42879 0.78905,0 1.50543,-0.12929 2.1482,-0.38838 0.63929,-0.24289 1.22461,-0.55113 1.7571,-0.92359 0.44768,-0.29146 0.92645,-0.67997 1.43525,-1.16575 0.52189,-0.502 0.93267,-0.89049 1.23253,-1.16578 l -0.62251,2.89058 h 2.69895 l 3.96581,-18.41202 c 0.37671,-1.74886 0.53385,-3.2143 0.47093,-4.39641 -0.0629,-1.18212 -0.3177,-2.14569 -0.76346,-2.89059 -0.45191,-0.76108 -1.06767,-1.29542 -1.84817,-1.6030901 -0.76741,-0.32386 -1.71883,-0.48563 -2.85428,-0.48563 z m 122.15191,0 c -0.97186,0 -1.98911,0.14584 -3.05262,0.43732 -1.06353,0.29148 -1.886,0.5583301 -2.46754,0.8012401 l -0.99989,4.63986 h 0.14471 c 1.06245,-0.59915 2.06456,-1.05261 3.00648,-1.36028 0.9454,-0.32386 1.7742,-0.48626 2.48627,-0.48626 0.58696,0 1.13574,0.0649 1.64669,0.19451 0.51095,0.12954 0.9185,0.38046 1.22316,0.75292 0.32043,0.38864 0.51366,0.92297 0.57885,1.6031 0.0748,0.6801 6.4e-4,1.5386 -0.22268,2.57497 l -0.15158,0.70398 c -1.60598,0.12955 -3.12528,0.32443 -4.55709,0.58352 -1.43183,0.25908 -2.71695,0.75267 -3.85541,1.48136 -1.12883,0.7287 -2.09564,1.73306 -2.90043,3.0123 -0.79169,1.26309 -1.40895,2.92277 -1.8519,4.97932 -0.54068,2.50995 -0.48006,4.57469 0.18149,6.19401 0.66157,1.61934 1.71878,2.42879 3.17177,2.42879 0.78904,0 1.50479,-0.12929 2.14757,-0.38838 0.63931,-0.24289 1.22525,-0.55113 1.75773,-0.92359 0.44769,-0.29146 0.92584,-0.67997 1.43462,-1.16575 0.5219,-0.502 0.93267,-0.89049 1.23253,-1.16578 l -0.62251,2.89058 h 2.69897 l 3.96643,-18.41202 c 0.37672,-1.74886 0.53321,-3.2143 0.4703,-4.39641 -0.0629,-1.18212 -0.31707,-2.14569 -0.76285,-2.89059 -0.45188,-0.76108 -1.06829,-1.29542 -1.84878,-1.6030901 -0.7674,-0.32386 -1.71884,-0.48563 -2.85429,-0.48563 z m -85.51163,3.6679801 c 0.0227,-3.3e-4 0.0452,0 0.0679,0 1.44336,0 2.37511,0.65534 2.79502,1.96698 0.42953,1.31167 0.39122,3.16623 -0.11541,5.56284 h -9.23771 c 0.57589,-2.13753 1.4473,-3.92711 2.61413,-5.36832 1.15807,-1.41868 2.44994,-2.13935 3.87596,-2.1615 z m -71.703722,9.88582 -1.627365,7.5543 c -0.861926,0.87443 -1.755164,1.62721 -2.680243,2.25876 -0.921589,0.61533 -1.858618,0.92295 -2.811241,0.92295 -1.145071,0 -1.913454,-0.3885 -2.304131,-1.16578 -0.387179,-0.79346 -0.412829,-1.96784 -0.07797,-3.5224 0.296483,-1.37643 0.768612,-2.45273 1.41716,-3.23003 0.652037,-0.79347 1.4083,-1.37683 2.267946,-1.74927 0.720608,-0.30768 1.656417,-0.54205 2.8075,-0.70399 1.160702,-0.16194 2.163368,-0.28356 3.008336,-0.36454 z m 36.459392,0 -1.62737,7.5543 c -0.86193,0.87443 -1.75517,1.62721 -2.68024,2.25876 -0.92159,0.61533 -1.85862,0.92295 -2.81124,0.92295 -1.14507,0 -1.91283,-0.3885 -2.30351,-1.16578 -0.38718,-0.79346 -0.41345,-1.96784 -0.0786,-3.5224 0.29649,-1.37643 0.7686,-2.45273 1.41717,-3.23003 0.65203,-0.79347 1.4083,-1.37683 2.26794,-1.74927 0.7206,-0.30768 1.6564,-0.54205 2.8075,-0.70399 1.1607,-0.16194 2.16337,-0.28356 3.00834,-0.36454 z m 122.15254,0 -1.62736,7.5543 c -0.86193,0.87443 -1.75517,1.62721 -2.68025,2.25876 -0.92159,0.61533 -1.85924,0.92295 -2.81186,0.92295 -1.14507,0 -1.91282,-0.3885 -2.30351,-1.16578 -0.38718,-0.79346 -0.41347,-1.96784 -0.0786,-3.5224 0.29648,-1.37643 0.76923,-2.45273 1.41778,-3.23003 0.65204,-0.79347 1.40769,-1.37683 2.26734,-1.74927 0.72059,-0.30768 1.6564,-0.54205 2.8075,-0.70399 1.16069,-0.16194 2.16398,-0.28356 3.00895,-0.36454 z"
       sodipodi:nodetypes="ccccsscccccccssscccccccccccccccccccccccccccccccccccccccccccsscccccccsssccssccccccsscccccccsssccscssccccscccccccccssccccccsscccccccsssssccccssccccsccssscccccccsccsssccccssccccsccssscccccccsccsssccccssccccscccsscccccccsccsssccccsscccscscccsccccscscccsccccscscccsc" />
    <path
       style="fill:none;stroke:#ffffff;stroke-width:1.58743;stroke-linecap:butt;stroke-linejoin:miter;stroke-miterlimit:4;stroke-dasharray:none;stroke-opacity:1"
       d="m 48.617592,36.695175 c -0.707295,0.46881 -0.440819,0.76347 -1.1306,0.95144 -9.877305,2.69163 -12.896783,-7.92607 -12.896783,-7.92607 -3.657887,-12.08509 1.261839,-35.1620601 29.769543,-34.7953601 0,0 11.842529,0.28916 29.36739,7.23609 17.590458,6.97294 36.007788,6.18399 40.159448,3.61401 4.15168,-2.56996 7.34528,-9.63737 6.3872,-14.45606 0,0 -1.27744,-8.9948599 -5.42911,9.95863"
       id="path14966"
       sodipodi:nodetypes="csscsscc"
       inkscape:export-filename="C:\Users\Hp\Desktop\text13179DD.png"
       inkscape:export-xdpi="96"
       inkscape:export-ydpi="96" />
    <path
       style="fill:#ffffff;stroke:#ffffff;stroke-width:0.793713;stroke-linecap:butt;stroke-linejoin:miter;stroke-miterlimit:4;stroke-dasharray:none;stroke-opacity:1"
       d="m 49.392388,37.670685 c -4.330106,1.45522 -5.33508,-0.0653 -8.162039,0.008 2.338497,-0.0363 4.977672,0.0752 6.324005,-1.42527 z"
       id="path16081"
       sodipodi:nodetypes="cccc"
       inkscape:export-filename="C:\Users\Hp\Desktop\text13179DD.png"
       inkscape:export-xdpi="96"
       inkscape:export-ydpi="96" />
    <path
       style="fill:#ffffff;stroke:#ffffff;stroke-width:1.32285;stroke-linecap:butt;stroke-linejoin:miter;stroke-miterlimit:4;stroke-dasharray:none;stroke-opacity:1"
       d="m 134.35991,-0.61712507 c 1.06168,-3.89853003 2.20321,-8.10189003 4.00832,-10.02317993 l 0.87505,-2e-5 c -1.00264,0.21819 -2.00538,5.1779699 -2.51226,10.05159993 z"
       id="path22567"
       sodipodi:nodetypes="ccccc"
       inkscape:export-filename="C:\Users\Hp\Desktop\text13179DD.png"
       inkscape:export-xdpi="96"
       inkscape:export-ydpi="96" />
    <path
       style="fill:#ffffff;fill-opacity:1;stroke:#ffffff;stroke-width:1.05828;stroke-linecap:butt;stroke-linejoin:miter;stroke-miterlimit:4;stroke-dasharray:none;stroke-opacity:1"
       d="m 164.62012,35.096695 13.10146,0.0803 -0.86601,1.89422 -14.04734,0.13015 z"
       id="path24946"
       sodipodi:nodetypes="ccccc"
       inkscape:export-filename="C:\Users\Hp\Desktop\text13179DD.png"
       inkscape:export-xdpi="96"
       inkscape:export-ydpi="96" />
    <g
       id="g32248"
       transform="matrix(1.2070283,0,0,1.2141566,90.035126,-144.56028)"
       inkscape:export-filename="C:\Users\Hp\Desktop\text13179DD.png"
       inkscape:export-xdpi="96"
       inkscape:export-ydpi="96"
       style="fill:none;fill-opacity:1;stroke:#ffffff;stroke-width:1.2632;stroke-miterlimit:4;stroke-dasharray:none;stroke-opacity:1">
      <path
         style="fill:none;fill-opacity:1;stroke:#ffffff;stroke-width:1.2632;stroke-linecap:butt;stroke-linejoin:miter;stroke-miterlimit:4;stroke-dasharray:none;stroke-opacity:1"
         d="m 99.765039,124.03978 c 0.0079,-0.68974 1.109931,-1.11327 2.529151,-1.58756 2.83036,-0.94587 7.15441,-1.72161 8.20105,-2.61556 1.23584,-1.05555 1.88692,-2.0393 2.22,-4.48798 0.059,-0.23566 0.12911,-1.16278 -0.0377,-2.17647 -0.11806,-0.71745 -0.37422,-1.51964 -0.71303,-2.04684 -0.92078,-1.43276 -2.67661,1.22076 -4.52699,10.31664"
         id="path28115"
         sodipodi:nodetypes="csscssc" />
    </g>
    <path
       style="fill:#ffffff;stroke:#ffffff;stroke-width:1.58743;stroke-linecap:butt;stroke-linejoin:miter;stroke-miterlimit:4;stroke-dasharray:none;stroke-opacity:1"
       d="m 199.53839,0.89981493 1.9113,-8.69715003 2.45649,-1e-5 -1.99599,9.23582 z"
       id="path34558"
       sodipodi:nodetypes="ccccc"
       inkscape:export-filename="C:\Users\Hp\Desktop\text13179DD.png"
       inkscape:export-xdpi="96"
       inkscape:export-ydpi="96" />
    <path
       style="fill:#ffffff;stroke:#ffffff;stroke-width:1.05828;stroke-linecap:butt;stroke-linejoin:miter;stroke-miterlimit:4;stroke-dasharray:none;stroke-opacity:1"
       d="m 221.74401,1.8063149 c 0,0 0.9727,-11.664 3.03182,-11.39812 l -0.99402,-0.31517 c -1.00915,1.65937 -1.25752,2.54768 -1.57615,3.79443 l -1.8344,7.76996 z"
       id="path37856"
       sodipodi:nodetypes="cccccc"
       inkscape:export-filename="C:\Users\Hp\Desktop\text13179DD.png"
       inkscape:export-xdpi="96"
       inkscape:export-ydpi="96" />
    <text
       xml:space="preserve"
       style="font-style:italic;font-variant:normal;font-weight:bold;font-stretch:normal;font-size:44.8006px;line-height:1.25;font-family:sans-serif;-inkscape-font-specification:'sans-serif Bold Italic';fill:#ffffff;fill-opacity:1;stroke:none;stroke-width:0.70001"
       x="46.804825"
       y="179.19458"
       id="text7778"
       inkscape:export-filename="C:\Users\Hp\Desktop\mkblack.png"
       inkscape:export-xdpi="96"
       inkscape:export-ydpi="96"><tspan
         sodipodi:role="line"
         id="tspan7776"
         style="font-style:italic;font-variant:normal;font-weight:bold;font-stretch:normal;font-size:44.8006px;font-family:sans-serif;-inkscape-font-specification:'sans-serif Bold Italic';fill:#ffffff;stroke-width:0.70001"
         x="46.804825"
         y="179.19458">LB SHAN</tspan></text>
  </g>
</svg>
