<svg width="36" height="36" viewBox="0 0 36 36" fill="none" xmlns="http://www.w3.org/2000/svg">
<path d="M32.3 9.5125L26 12.175V8.5C26 8.10218 25.7893 7.72064 25.4142 7.43934C25.0391 7.15804 24.5304 7 24 7H6C4.93913 7 3.92172 7.31607 3.17157 7.87868C2.42143 8.44129 2 9.20435 2 10V22C2 22.7956 2.42143 23.5587 3.17157 24.1213C3.92172 24.6839 4.93913 25 6 25H24C24.5304 25 25.0391 24.842 25.4142 24.5607C25.7893 24.2794 26 23.8978 26 23.5V19.81L32.3 22.4725C32.4616 22.5517 32.6482 22.5976 32.841 22.6056C33.0338 22.6136 33.2259 22.5834 33.3982 22.518C33.5705 22.4527 33.7168 22.3544 33.8225 22.2332C33.9281 22.112 33.9893 21.9721 34 21.8275V10.15C33.9877 10.0061 33.9253 9.86706 33.819 9.74686C33.7127 9.62666 33.5662 9.52946 33.3942 9.46496C33.2222 9.40045 33.0306 9.3709 32.8386 9.37924C32.6467 9.38758 32.4609 9.43353 32.3 9.5125V9.5125Z" fill="#2AE5FF"/>
</svg>
