<svg width="384" height="366" viewBox="0 0 384 366" fill="none" xmlns="http://www.w3.org/2000/svg">
<rect width="383.714" height="365.905" rx="10" fill="url(#paint0_linear_215_87)"/>
<rect x="208.047" y="39.6665" width="122.03" height="286.738" fill="white"/>
<rect x="208.047" y="39.6665" width="122.03" height="11.3646" fill="#FF9595"/>
<rect x="218.441" y="71.575" width="53.1234" height="55.0746" fill="#9DB7FA"/>
<line x1="279.648" y1="76.7573" x2="318.53" y2="76.7573" stroke="black"/>
<line x1="279.648" y1="83.7507" x2="318.53" y2="83.7507" stroke="black"/>
<line x1="279.648" y1="92.4929" x2="318.53" y2="92.4929" stroke="black"/>
<line x1="279.648" y1="101.235" x2="318.53" y2="101.235" stroke="black"/>
<line x1="279.648" y1="109.977" x2="318.53" y2="109.977" stroke="black"/>
<rect x="208.047" y="188.281" width="122.03" height="54.6375" fill="#4F4E4E"/>
<line x1="271.564" y1="214.881" x2="311.599" y2="214.881" stroke="white"/>
<line x1="271.564" y1="207.45" x2="311.599" y2="207.45" stroke="white"/>
<line x1="271.564" y1="222.311" x2="311.599" y2="222.311" stroke="white"/>
<rect x="208.047" y="262.588" width="122.03" height="63.8166" fill="#76C7CC"/>
<path d="M235.956 84.2505L246.791 109.493H225.121L235.956 84.2505Z" fill="#73FF50"/>
<ellipse cx="248.467" cy="110.258" rx="10.3937" ry="12.0203" fill="#FF8FFB"/>
<rect x="218.441" y="206.639" width="35.4156" height="17.484" rx="8.74201" fill="#76C7CC"/>
<rect x="219.981" y="141.511" width="18.0927" height="34.5309" fill="#FF9191" fill-opacity="0.66"/>
<rect x="248.467" y="141.511" width="18.0927" height="34.5309" fill="#FF9191" fill-opacity="0.66"/>
<rect x="273.489" y="141.511" width="18.0927" height="34.5309" fill="#FF9191" fill-opacity="0.66"/>
<rect x="298.511" y="141.511" width="18.0927" height="34.5309" fill="#FF9191" fill-opacity="0.66"/>
<rect x="223.445" y="279.635" width="37.7253" height="6.1194" fill="#4F4E4E"/>
<rect x="223.445" y="291.436" width="37.7253" height="6.1194" fill="#4F4E4E"/>
<rect x="223.445" y="303.238" width="37.7253" height="16.6098" fill="#4F4E4E"/>
<rect width="98.5282" height="9.7851" transform="matrix(0.791983 -0.610543 0.604417 0.796668 67.0771 285.249)" fill="#803E3E"/>
<path d="M165.661 233.53C157.522 243.131 144.527 245.405 136.636 238.608C128.745 231.811 124.282 222.98 136.636 215.432C154.982 215.432 164.311 198.974 172.203 205.771C165.661 212.111 168.908 224.791 165.661 233.53Z" fill="#E39A2C"/>
<path d="M129.992 231.112C133.117 224.174 136.004 220.414 144.18 214.045" stroke="#803E3E" stroke-opacity="0.45"/>
<path d="M131.605 235.366C142.082 223.625 149.598 216.888 167.385 204.451" stroke="#803E3E" stroke-opacity="0.45"/>
<path d="M134.587 238.61C145.247 228.716 151.836 222.98 168.009 212.111" stroke="#803E3E" stroke-opacity="0.45"/>
<path d="M138.358 241.317C149.691 238.391 155.986 234.816 167.073 223.281" stroke="#803E3E" stroke-opacity="0.45"/>
<path fill-rule="evenodd" clip-rule="evenodd" d="M93.084 124.59C104.209 125.269 113.187 131.411 121.882 137.089C130.151 142.489 139.156 148.08 141.826 156.421C144.432 164.565 138.688 172.476 135.793 180.556C132.78 188.963 134.023 200.271 124.591 204.509C115.01 208.816 103.957 200.806 93.084 199.751C84.0939 198.879 74.9708 201.703 66.6082 198.884C56.7018 195.545 46.6787 190.649 42.3904 182.664C37.945 174.386 40.4617 164.891 43.7156 156.255C47.0187 147.489 52.105 139.055 60.9628 133.374C70.0516 127.544 81.5356 123.886 93.084 124.59Z" fill="#FDEDED"/>
<ellipse cx="86.4503" cy="139.116" rx="11.0406" ry="5.80483" fill="#FF8FFB"/>
<ellipse cx="113.531" cy="145.121" rx="11.0406" ry="5.80483" fill="#FF9595"/>
<ellipse cx="124.78" cy="165.137" rx="11.0406" ry="5.80483" fill="#29898F"/>
<path d="M101.991 166.939C101.991 171.171 99.7377 175.039 96.0253 177.864C92.3125 180.69 87.1613 182.452 81.4508 182.452C75.7403 182.452 70.5891 180.69 66.8763 177.864C63.1639 175.039 60.9111 171.171 60.9111 166.939C60.9111 162.706 63.1639 158.839 66.8763 156.014C70.5891 153.188 75.7403 151.426 81.4508 151.426C87.1613 151.426 92.3125 153.188 96.0253 156.014C99.7377 158.839 101.991 162.706 101.991 166.939Z" fill="#FAE4E4" stroke="#E4CFCF"/>
<defs>
<linearGradient id="paint0_linear_215_87" x1="39.8911" y1="57.8727" x2="369.242" y2="420.854" gradientUnits="userSpaceOnUse">
<stop stop-color="#7B2AFF"/>
<stop offset="0.304379" stop-color="#6037D4"/>
<stop offset="0.653609" stop-color="#2B40FF"/>
<stop offset="0.975785" stop-color="#0922FF"/>
</linearGradient>
</defs>
</svg>
